<svg version="1" xmlns="http://www.w3.org/2000/svg" width="682.667" height="682.667" viewBox="0 0 512.000000 512.000000"><path d="M14.2 2.6C8.5 5.4 4.6 9.5 1.9 15.5.1 19.3 0 29.3 0 256.1v236.5l2.6 5.2c2.8 5.7 6.9 9.6 12.9 12.3 3.8 1.8 13.8 1.9 240.6 1.9h236.5l5.2-2.6c5.7-2.8 9.6-6.9 12.3-12.9 1.8-3.8 1.9-13.8 1.9-240.5s-.1-236.7-1.9-240.5c-2.7-6-6.6-10.1-12.3-12.9L492.6 0H19.4l-5.2 2.6zm242.9 62.5c54.1 36.1 104.1 81.2 147.1 132.4 11.6 13.9 31.2 40.3 43.3 58.3l10.9 16.3-12.4 12.4-12.5 12.5-11.1-16.8c-52-78-120.5-145.8-197.1-194.9l-10.4-6.7 12.3-12.3c6.8-6.8 12.8-12.1 13.5-11.9.7.3 8.1 5.1 16.4 10.7zm75.8 1.5c44.1 30.5 80.8 67.3 113.5 114.2l5.9 8.4-9.4 9.4c-5.1 5.2-9.6 9.4-9.9 9.4-.3-.1-2.7-3.5-5.5-7.7-26.9-41.3-67.5-82.4-111.3-113l-12.4-8.6 9.3-9.3c5.2-5.2 9.5-9.4 9.7-9.4.3 0 4.8 3 10.1 6.6zM217 102.4c76.1 50.7 138.7 113.1 191.1 190.3l12 17.7-12.6 12.6c-11.6 11.5-12.7 12.3-13.7 10.5-3.3-5.9-23.5-35-33.3-48-36.9-49.1-85-97.2-134.2-134.2-12.9-9.6-41.8-29.6-48-33.2-1.6-.9-.3-2.5 10.6-13.5 6.9-6.9 12.9-12.2 13.5-11.9.6.4 7.2 4.7 14.6 9.7zm-89 90.8c24.3 37.1 51.6 70.5 86 104.8 33.4 33.4 63.3 58.1 100.6 83.3 9.3 6.2 17.8 11.9 18.9 12.5 1.8 1 1 2.1-10.5 13.7L310.4 420 293 408.3c-77.6-52.4-140-115.2-191.6-192.6L92 201.5l12.2-12.2c6.8-6.8 12.5-12.3 12.8-12.2.3 0 5.2 7.3 11 16.1zm-38.1 39c50.8 76.3 114 139.5 189.9 189.9l17.1 11.4-12.4 12.4-12.4 12.5-9.8-6.5c-26.7-17.4-58.2-41.3-80.3-60.9-14.6-12.9-42.9-41.1-56.4-56-24.1-26.7-46.7-56.2-66.5-86.8l-5.4-8.3L66 227.5c6.8-6.9 12.5-12.3 12.6-12.2.1.1 5.2 7.7 11.3 16.9zm-2.5 84.1c14.9 21.5 29.4 38.7 49.5 58.8 20.2 20.1 37.3 34.6 58.9 49.6l12.4 8.6-9.5 9.5-9.5 9.4-6.3-4.3c-23.4-15.7-43.6-32.5-64.9-53.8-21.3-21.3-35.6-38.4-51.5-61.4l-6.8-9.9 9.4-9.4c5.1-5.2 9.4-9.4 9.5-9.4.1 0 4.1 5.5 8.8 12.3z"/></svg>