<?xml version="1.0" encoding="UTF-8" standalone="no"?>
<!-- Generator: Adobe Illustrator 23.0.3, SVG Export Plug-In . SVG Version: 6.00 Build 0)  -->

<svg
   xmlns:dc="http://purl.org/dc/elements/1.1/"
   xmlns:cc="http://creativecommons.org/ns#"
   xmlns:rdf="http://www.w3.org/1999/02/22-rdf-syntax-ns#"
   xmlns:svg="http://www.w3.org/2000/svg"
   xmlns="http://www.w3.org/2000/svg"
   xmlns:sodipodi="http://sodipodi.sourceforge.net/DTD/sodipodi-0.dtd"
   xmlns:inkscape="http://www.inkscape.org/namespaces/inkscape"
   version="1.1"
   id="Layer_1"
   x="0px"
   y="0px"
   viewBox="0 0 366 136.82"
   xml:space="preserve"
   sodipodi:docname="openlifter-boxy.svg"
   inkscape:version="0.92.4 (unknown)"
   width="366"
   height="136.82001"><metadata
   id="metadata3843"><rdf:RDF><cc:Work
       rdf:about=""><dc:format>image/svg+xml</dc:format><dc:type
         rdf:resource="http://purl.org/dc/dcmitype/StillImage" /><dc:title></dc:title></cc:Work></rdf:RDF></metadata><defs
   id="defs3841" /><sodipodi:namedview
   pagecolor="#ffffff"
   bordercolor="#666666"
   borderopacity="1"
   objecttolerance="10"
   gridtolerance="10"
   guidetolerance="10"
   inkscape:pageopacity="0"
   inkscape:pageshadow="2"
   inkscape:window-width="2560"
   inkscape:window-height="1311"
   id="namedview3839"
   showgrid="false"
   inkscape:zoom="4.0989583"
   inkscape:cx="119.69092"
   inkscape:cy="70.432752"
   inkscape:window-x="0"
   inkscape:window-y="55"
   inkscape:window-maximized="1"
   inkscape:current-layer="Layer_1" />
<style
   type="text/css"
   id="style3798">
	.st0{fill:#C82932;}
	.st1{fill:#FFFFFF;}
</style>
<g
   id="g3878"
   transform="matrix(0.95998703,0,0,0.95998703,-0.5321587,-24.294247)"><path
     d="m 136.93,84.77 5.61,-31.98 c 1.27,-6.88 5.01,-10.16 11.73,-10.16 h 20.7 c 6.73,0 9.41,3.29 8.14,10.16 l -5.6,31.98 c -1.2,6.88 -5.01,10.16 -11.73,10.16 h -20.7 c -6.73,0 -9.34,-3.28 -8.15,-10.16 z m 25.56,-1.49 c 0.97,0 1.27,-0.3 1.49,-1.34 l 4.63,-26.3 c 0.15,-1.05 -0.08,-1.35 -1.05,-1.35 h -9.94 c -0.97,0 -1.34,0.3 -1.49,1.35 l -4.63,26.3 c -0.22,1.05 0.07,1.34 1.05,1.34 z"
     id="path3800"
     inkscape:connector-curvature="0" /><path
     d="m 193.04,42.63 h 30.19 c 6.73,0 9.42,3.29 8.15,10.16 l -2.77,15.77 c -1.2,6.88 -5.01,10.16 -11.73,10.16 h -16.14 l -2.84,16.22 h -14.05 z m 20.48,24.58 c 0.97,0 1.34,-0.3 1.57,-1.34 l 1.79,-10.39 c 0.22,-1.05 -0.07,-1.34 -1.05,-1.34 h -10.76 l -2.32,13.08 h 10.77 z"
     id="path3802"
     inkscape:connector-curvature="0" /><path
     d="m 238.91,42.63 h 36.17 l -8.64,11.66 h -15.49 l -1.42,8.15 h 17.49 l -8.64,11.51 h -10.86 l -1.64,9.34 H 268 l -8.72,11.66 h -29.54 z"
     id="path3804"
     inkscape:connector-curvature="0" /><path
     d="m 282.25,42.63 h 13.38 l 12.26,27.8 4.86,-27.8 h 13.6 l -9.19,52.31 h -11.81 l -13.38,-29.96 -5.31,29.96 h -13.6 z"
     id="path3806"
     inkscape:connector-curvature="0" /></g><g
   id="g3886"
   transform="matrix(0.95384818,0,0,0.95384818,-182.78754,30.382115)"><path
     d="m 335.07,42.63 h 14.05 l -7.1,40.35 h 20.25 l -8.72,11.96 h -27.67 z"
     id="path3808"
     inkscape:connector-curvature="0" /><path
     d="m 375.26,42.63 h 14.05 l -9.19,52.31 h -14.05 z"
     id="path3810"
     inkscape:connector-curvature="0" /><path
     d="m 398.05,42.63 h 36.17 l -8.64,11.66 h -15.49 l -1.64,9.12 h 17.49 l -8.64,11.51 h -10.86 l -3.51,20.03 h -14.05 z"
     id="path3812"
     inkscape:connector-curvature="0" /><path
     d="m 447.74,54.58 h -12.7 l 2.09,-11.96 h 39.46 l -2.09,11.96 h -12.7 l -7.1,40.35 h -14.05 z"
     id="path3814"
     inkscape:connector-curvature="0" /><path
     d="m 482.25,42.63 h 36.17 l -8.64,11.66 h -15.49 l -1.42,8.15 h 17.49 l -8.64,11.51 h -10.86 l -1.64,9.34 h 22.12 l -8.72,11.66 h -29.54 z"
     id="path3816"
     inkscape:connector-curvature="0" /><path
     d="m 562.34,52.79 -2.39,13.6 c -0.97,5.76 -3.81,8.97 -8.59,9.86 l 5.68,18.68 h -13.6 l -5.68,-17.49 h -5.9 l -3.06,17.49 h -14.05 l 9.19,-52.31 h 30.26 c 6.72,0.01 9.41,3.29 8.14,10.17 z m -17.71,13.6 c 0.97,0 1.35,-0.3 1.57,-1.34 l 1.64,-9.71 c 0.22,-1.05 0,-1.34 -0.97,-1.34 h -10.84 l -2.24,12.4 h 10.84 z"
     id="path3818"
     inkscape:connector-curvature="0" /></g>
<path
   class="st0"
   d="M 111.52,121.18 H 17.35 c -2.93,0 -5.31,-2.38 -5.31,-5.31 V 21.7 c 0,-2.93 2.38,-5.31 5.31,-5.31 h 94.17 c 2.93,0 5.31,2.38 5.31,5.31 v 94.17 c 0,2.93 -2.37,5.31 -5.31,5.31 z"
   id="path3822"
   inkscape:connector-curvature="0"
   style="fill:#c82932" />
<g
   id="g3836">
	<path
   class="st1"
   d="m 99.91,58.03 0.76,1.15 4.01,-4.02 -0.51,-0.77 C 97.47,44.25 88.93,35.71 78.79,29.01 l -0.77,-0.51 -4.01,4.01 1.15,0.76 c 9.89,6.55 18.21,14.88 24.75,24.76 z"
   id="path3824"
   inkscape:connector-curvature="0"
   style="fill:#ffffff" />
	<path
   class="st1"
   d="m 54.02,35.63 -0.76,-0.49 -5.22,5.22 1.19,0.76 C 66.6,52.18 81.02,66.61 92.1,83.98 l 0.76,1.19 5.21,-5.22 -0.49,-0.76 C 86.33,61.53 71.67,46.88 54.02,35.63 Z"
   id="path3826"
   inkscape:connector-curvature="0"
   style="fill:#ffffff" />
	<path
   class="st1"
   d="M 105.44,71.33 C 94.19,53.67 79.53,39.01 61.87,27.76 l -0.76,-0.49 -5.21,5.22 1.19,0.76 c 17.37,11.07 31.8,25.49 42.87,42.87 l 0.76,1.19 5.21,-5.22 z"
   id="path3828"
   inkscape:connector-curvature="0"
   style="fill:#ffffff" />
	<path
   class="st1"
   d="m 28.94,79.55 -0.76,-1.15 -4.01,4.01 0.51,0.77 c 6.7,10.14 15.24,18.68 25.38,25.38 l 0.77,0.51 4.01,-4.01 -1.15,-0.76 C 43.79,97.75 35.47,89.43 28.94,79.55 Z"
   id="path3830"
   inkscape:connector-curvature="0"
   style="fill:#ffffff" />
	<path
   class="st1"
   d="m 36.75,53.59 -0.76,-1.19 -5.21,5.22 0.49,0.76 c 11.25,17.66 25.91,32.32 43.56,43.56 l 0.76,0.49 5.21,-5.22 -1.19,-0.76 C 62.24,85.4 47.82,70.97 36.75,53.59 Z"
   id="path3832"
   inkscape:connector-curvature="0"
   style="fill:#ffffff" />
	<path
   class="st1"
   d="m 28.89,61.46 -0.76,-1.19 -5.21,5.22 0.49,0.76 c 11.25,17.66 25.91,32.32 43.56,43.56 l 0.76,0.49 5.21,-5.22 -1.19,-0.76 C 54.38,93.26 39.96,78.83 28.89,61.46 Z"
   id="path3834"
   inkscape:connector-curvature="0"
   style="fill:#ffffff" />
</g>
</svg>