<?xml version="1.0" encoding="UTF-8" standalone="no"?>
<!-- Generator: Adobe Illustrator 23.0.3, SVG Export Plug-In . SVG Version: 6.00 Build 0)  -->

<svg
   xmlns:dc="http://purl.org/dc/elements/1.1/"
   xmlns:cc="http://creativecommons.org/ns#"
   xmlns:rdf="http://www.w3.org/1999/02/22-rdf-syntax-ns#"
   xmlns:svg="http://www.w3.org/2000/svg"
   xmlns="http://www.w3.org/2000/svg"
   xmlns:sodipodi="http://sodipodi.sourceforge.net/DTD/sodipodi-0.dtd"
   xmlns:inkscape="http://www.inkscape.org/namespaces/inkscape"
   version="1.1"
   id="Layer_1"
   x="0px"
   y="0px"
   viewBox="0 0 445.99347 72.329997"
   xml:space="preserve"
   sodipodi:docname="openlifter-white.svg"
   width="445.99347"
   height="72.330002"
   inkscape:version="0.92.4 (unknown)"><metadata
   id="metadata47"><rdf:RDF><cc:Work
       rdf:about=""><dc:format>image/svg+xml</dc:format><dc:type
         rdf:resource="http://purl.org/dc/dcmitype/StillImage" /><dc:title></dc:title></cc:Work></rdf:RDF></metadata><defs
   id="defs45" /><sodipodi:namedview
   pagecolor="#ffffff"
   bordercolor="#666666"
   borderopacity="1"
   objecttolerance="10"
   gridtolerance="10"
   guidetolerance="10"
   inkscape:pageopacity="0"
   inkscape:pageshadow="2"
   inkscape:window-width="2560"
   inkscape:window-height="1311"
   id="namedview43"
   showgrid="false"
   fit-margin-top="10"
   fit-margin-bottom="10"
   fit-margin-left="10"
   fit-margin-right="10"
   inkscape:zoom="3.3685781"
   inkscape:cx="177.53479"
   inkscape:cy="34.088114"
   inkscape:window-x="0"
   inkscape:window-y="55"
   inkscape:window-maximized="1"
   inkscape:current-layer="Layer_1" />
<style
   type="text/css"
   id="style2">
	.st0{fill:#C82932;}
	.st1{fill:#FFFFFF;}
</style>
<g
   id="g24"
   transform="translate(-126.65172,-32.62)"
   style="fill:#ffffff">
	<path
   d="m 136.93,84.77 5.61,-31.98 c 1.27,-6.88 5.01,-10.16 11.73,-10.16 h 20.7 c 6.73,0 9.41,3.29 8.14,10.16 l -5.6,31.98 c -1.2,6.88 -5.01,10.16 -11.73,10.16 h -20.7 c -6.73,0 -9.34,-3.28 -8.15,-10.16 z m 25.56,-1.49 c 0.97,0 1.27,-0.3 1.49,-1.34 l 4.63,-26.3 c 0.15,-1.05 -0.08,-1.35 -1.05,-1.35 h -9.94 c -0.97,0 -1.34,0.3 -1.49,1.35 l -4.63,26.3 c -0.22,1.05 0.07,1.34 1.05,1.34 z"
   id="path4"
   inkscape:connector-curvature="0"
   style="fill:#ffffff" />
	<path
   d="m 193.04,42.63 h 30.19 c 6.73,0 9.42,3.29 8.15,10.16 l -2.77,15.77 c -1.2,6.88 -5.01,10.16 -11.73,10.16 h -16.14 l -2.84,16.22 h -14.05 z m 20.48,24.58 c 0.97,0 1.34,-0.3 1.57,-1.34 l 1.79,-10.39 c 0.22,-1.05 -0.07,-1.34 -1.05,-1.34 h -10.76 l -2.32,13.08 h 10.77 z"
   id="path6"
   inkscape:connector-curvature="0"
   style="fill:#ffffff" />
	<path
   d="m 238.91,42.63 h 36.17 l -8.64,11.66 h -15.49 l -1.42,8.15 h 17.49 l -8.64,11.51 h -10.86 l -1.64,9.34 H 268 l -8.72,11.66 h -29.54 z"
   id="path8"
   inkscape:connector-curvature="0"
   style="fill:#ffffff" />
	<path
   d="m 282.25,42.63 h 13.38 l 12.26,27.8 4.86,-27.8 h 13.6 l -9.19,52.31 h -11.81 l -13.38,-29.96 -5.31,29.96 h -13.6 z"
   id="path10"
   inkscape:connector-curvature="0"
   style="fill:#ffffff" />
	<path
   d="m 335.07,42.63 h 14.05 l -7.1,40.35 h 20.25 l -8.72,11.96 h -27.67 z"
   id="path12"
   inkscape:connector-curvature="0"
   style="fill:#ffffff" />
	<path
   d="m 375.26,42.63 h 14.05 l -9.19,52.31 h -14.05 z"
   id="path14"
   inkscape:connector-curvature="0"
   style="fill:#ffffff" />
	<path
   d="m 398.05,42.63 h 36.17 l -8.64,11.66 h -15.49 l -1.64,9.12 h 17.49 l -8.64,11.51 h -10.86 l -3.51,20.03 h -14.05 z"
   id="path16"
   inkscape:connector-curvature="0"
   style="fill:#ffffff" />
	<path
   d="m 447.74,54.58 h -12.7 l 2.09,-11.96 h 39.46 l -2.09,11.96 h -12.7 l -7.1,40.35 h -14.05 z"
   id="path18"
   inkscape:connector-curvature="0"
   style="fill:#ffffff" />
	<path
   d="m 482.25,42.63 h 36.17 l -8.64,11.66 h -15.49 l -1.42,8.15 h 17.49 l -8.64,11.51 h -10.86 l -1.64,9.34 h 22.12 l -8.72,11.66 h -29.54 z"
   id="path20"
   inkscape:connector-curvature="0"
   style="fill:#ffffff" />
	<path
   d="m 562.34,52.79 -2.39,13.6 c -0.97,5.76 -3.81,8.97 -8.59,9.86 l 5.68,18.68 h -13.6 l -5.68,-17.49 h -5.9 l -3.06,17.49 h -14.05 l 9.19,-52.31 h 30.26 c 6.72,0.01 9.41,3.29 8.14,10.17 z m -17.71,13.6 c 0.97,0 1.35,-0.3 1.57,-1.34 l 1.64,-9.71 c 0.22,-1.05 0,-1.34 -0.97,-1.34 h -10.84 l -2.24,12.4 h 10.84 z"
   id="path22"
   inkscape:connector-curvature="0"
   style="fill:#ffffff" />
</g>


</svg>