<?xml version="1.0" encoding="utf-8"?>
<!-- Generator: Adobe Illustrator 23.0.3, SVG Export Plug-In . SVG Version: 6.00 Build 0)  -->
<svg version="1.1" id="Layer_1" xmlns="http://www.w3.org/2000/svg" xmlns:xlink="http://www.w3.org/1999/xlink" x="0px" y="0px"
	 viewBox="0 0 576 136.82" style="enable-background:new 0 0 576 136.82;" xml:space="preserve">
<style type="text/css">
	.st0{fill:#C82932;}
	.st1{fill:#FFFFFF;}
</style>
<g>
	<path d="M136.93,84.77l5.61-31.98c1.27-6.88,5.01-10.16,11.73-10.16h20.7c6.73,0,9.41,3.29,8.14,10.16l-5.6,31.98
		c-1.2,6.88-5.01,10.16-11.73,10.16h-20.7C138.35,94.93,135.74,91.65,136.93,84.77z M162.49,83.28c0.97,0,1.27-0.3,1.49-1.34
		l4.63-26.3c0.15-1.05-0.08-1.35-1.05-1.35h-9.94c-0.97,0-1.34,0.3-1.49,1.35l-4.63,26.3c-0.22,1.05,0.07,1.34,1.05,1.34H162.49z"/>
	<path d="M193.04,42.63h30.19c6.73,0,9.42,3.29,8.15,10.16l-2.77,15.77c-1.2,6.88-5.01,10.16-11.73,10.16h-16.14l-2.84,16.22h-14.05
		L193.04,42.63z M213.52,67.21c0.97,0,1.34-0.3,1.57-1.34l1.79-10.39c0.22-1.05-0.07-1.34-1.05-1.34h-10.76l-2.32,13.08H213.52z"/>
	<path d="M238.91,42.63h36.17l-8.64,11.66h-15.49l-1.42,8.15h17.49l-8.64,11.51h-10.86l-1.64,9.34h22.12l-8.72,11.66h-29.54
		L238.91,42.63z"/>
	<path d="M282.25,42.63h13.38l12.26,27.8l4.86-27.8h13.6l-9.19,52.31h-11.81l-13.38-29.96l-5.31,29.96h-13.6L282.25,42.63z"/>
	<path d="M335.07,42.63h14.05l-7.1,40.35h20.25l-8.72,11.96h-27.67L335.07,42.63z"/>
	<path d="M375.26,42.63h14.05l-9.19,52.31h-14.05L375.26,42.63z"/>
	<path d="M398.05,42.63h36.17l-8.64,11.66h-15.49l-1.64,9.12h17.49l-8.64,11.51h-10.86l-3.51,20.03h-14.05L398.05,42.63z"/>
	<path d="M447.74,54.58h-12.7l2.09-11.96h39.46l-2.09,11.96h-12.7l-7.1,40.35h-14.05L447.74,54.58z"/>
	<path d="M482.25,42.63h36.17l-8.64,11.66h-15.49l-1.42,8.15h17.49l-8.64,11.51h-10.86l-1.64,9.34h22.12l-8.72,11.66h-29.54
		L482.25,42.63z"/>
	<path d="M562.34,52.79l-2.39,13.6c-0.97,5.76-3.81,8.97-8.59,9.86l5.68,18.68h-13.6l-5.68-17.49h-5.9l-3.06,17.49h-14.05
		l9.19-52.31h30.26C560.92,42.63,563.61,45.91,562.34,52.79z M544.63,66.39c0.97,0,1.35-0.3,1.57-1.34l1.64-9.71
		c0.22-1.05,0-1.34-0.97-1.34h-10.84l-2.24,12.4H544.63z"/>
</g>
<path class="st0" d="M111.52,121.18H17.35c-2.93,0-5.31-2.38-5.31-5.31V21.7c0-2.93,2.38-5.31,5.31-5.31h94.17
	c2.93,0,5.31,2.38,5.31,5.31v94.17C116.83,118.8,114.46,121.18,111.52,121.18z"/>
<g>
	<path class="st1" d="M99.91,58.03l0.76,1.15l4.01-4.02l-0.51-0.77c-6.7-10.14-15.24-18.68-25.38-25.38l-0.77-0.51l-4.01,4.01
		l1.15,0.76C85.05,39.82,93.37,48.15,99.91,58.03z"/>
	<path class="st1" d="M54.02,35.63l-0.76-0.49l-5.22,5.22l1.19,0.76C66.6,52.18,81.02,66.61,92.1,83.98l0.76,1.19l5.21-5.22
		l-0.49-0.76C86.33,61.53,71.67,46.88,54.02,35.63z"/>
	<path class="st1" d="M105.44,71.33C94.19,53.67,79.53,39.01,61.87,27.76l-0.76-0.49l-5.21,5.22l1.19,0.76
		c17.37,11.07,31.8,25.49,42.87,42.87l0.76,1.19l5.21-5.22L105.44,71.33z"/>
	<path class="st1" d="M28.94,79.55l-0.76-1.15l-4.01,4.01l0.51,0.77c6.7,10.14,15.24,18.68,25.38,25.38l0.77,0.51l4.01-4.01
		l-1.15-0.76C43.79,97.75,35.47,89.43,28.94,79.55z"/>
	<path class="st1" d="M36.75,53.59l-0.76-1.19l-5.21,5.22l0.49,0.76c11.25,17.66,25.91,32.32,43.56,43.56l0.76,0.49l5.21-5.22
		l-1.19-0.76C62.24,85.4,47.82,70.97,36.75,53.59z"/>
	<path class="st1" d="M28.89,61.46l-0.76-1.19l-5.21,5.22l0.49,0.76c11.25,17.66,25.91,32.32,43.56,43.56l0.76,0.49l5.21-5.22
		l-1.19-0.76C54.38,93.26,39.96,78.83,28.89,61.46z"/>
</g>
</svg>
